<?xml version="1.0" standalone="no"?>
<!DOCTYPE svg PUBLIC "-//W3C//DTD SVG 20010904//EN"
 "http://www.w3.org/TR/2001/REC-SVG-20010904/DTD/svg10.dtd">
<svg version="1.0" xmlns="http://www.w3.org/2000/svg"
 width="576.000000pt" height="576.000000pt" viewBox="0 0 576.000000 576.000000"
 preserveAspectRatio="xMidYMid meet">
<metadata>
Created by potrace 1.14, written by Peter Selinger 2001-2017
</metadata>
<g transform="translate(0.000000,576.000000) scale(0.100000,-0.100000)"
fill="#000000" stroke="none">
<path d="M327 5412 c-154 -54 -261 -168 -315 -337 -4 -11 -8 -779 -9 -1706
l-3 -1685 22 -65 c56 -167 185 -288 348 -326 52 -12 200 -22 200 -13 0 3 37 4
82 2 106 -4 190 -2 199 4 4 2 10 0 13 -4 3 -5 26 -6 51 -2 24 4 47 5 49 2 7
-6 126 -8 126 -1 0 3 23 3 50 -1 28 -4 50 -3 50 0 0 4 19 4 43 0 23 -3 57 -3
75 1 18 4 34 3 37 -1 2 -4 25 -4 50 0 24 4 47 5 49 2 7 -6 126 -8 126 -1 0 3
23 3 50 -1 28 -4 50 -2 50 2 0 5 4 7 9 3 8 -4 32 -5 121 -4 8 0 59 -2 113 -3
53 -2 97 0 97 3 0 4 17 3 38 0 20 -4 51 -4 69 0 18 3 35 4 38 1 6 -7 164 -4
175 3 5 3 11 1 14 -3 3 -5 18 -7 32 -4 24 4 26 2 20 -14 -4 -10 -41 -118 -81
-239 -66 -199 -75 -220 -98 -226 -14 -4 -28 -5 -31 -2 -6 6 -196 9 -196 3 0
-3 -35 -4 -77 -3 -114 4 -207 5 -218 3 -5 -1 -14 -2 -19 -1 -18 4 -132 2 -179
-2 -163 -15 -260 -185 -194 -339 19 -44 71 -95 121 -118 40 -19 80 -19 1466
-17 1328 2 1427 3 1455 19 144 83 177 269 69 381 -60 61 -113 78 -239 77 -60
-1 -48 -1 -168 2 -53 2 -97 1 -97 -2 0 -3 -35 -4 -77 -3 -175 6 -213 6 -218 1
-6 -5 -93 6 -98 13 -7 8 -155 464 -152 467 2 2 34 3 71 2 38 -1 85 0 104 0 19
1 41 2 48 1 20 -2 39 -2 95 -2 28 1 96 0 150 -2 53 -1 97 1 97 4 0 4 17 3 38
0 20 -4 51 -4 69 0 18 3 35 4 37 2 7 -8 176 -9 176 -2 0 4 17 3 38 0 20 -4 52
-4 70 0 18 3 34 4 36 0 2 -3 41 -4 86 -1 45 3 86 3 91 0 4 -3 36 -3 69 0 34 3
63 3 65 -1 3 -3 25 -3 50 1 24 4 47 5 49 2 7 -6 126 -8 126 -1 0 3 22 3 50 -1
27 -4 50 -3 50 0 0 4 20 4 45 0 25 -4 45 -4 45 0 0 4 18 4 40 0 22 -4 42 -4
45 0 2 4 25 4 50 0 25 -4 48 -3 51 2 3 4 9 6 14 3 5 -3 28 -1 52 5 24 6 50 12
59 14 32 8 101 46 143 78 76 58 149 171 175 268 3 14 6 786 6 1715 0 1634 -1
1692 -19 1745 -48 140 -150 245 -291 301 l-60 24 -2490 2 -2490 2 -78 -27z
m510 -611 c18 3 34 4 37 2 6 -7 216 -9 216 -2 0 3 23 3 50 -1 28 -4 50 -3 50
0 0 4 19 4 43 1 23 -4 59 -4 80 0 20 3 37 3 37 -1 0 -3 23 -4 50 0 28 4 50 4
50 1 0 -3 54 -6 120 -6 66 0 120 3 120 6 0 4 17 3 38 0 20 -4 52 -4 70 0 18 3
34 4 36 0 2 -3 40 -4 85 -1 44 3 90 2 103 -1 13 -3 40 -2 60 1 20 4 42 4 48 0
6 -4 29 -4 51 0 22 4 42 3 45 -1 3 -5 10 -7 15 -3 5 3 44 5 87 4 92 -2 92 -2
117 0 20 1 140 1 340 -1 55 0 105 -1 110 -1 6 0 21 1 35 2 14 0 42 1 63 1 20
0 43 0 50 0 23 1 282 0 382 -2 55 0 105 -1 110 -1 6 0 21 1 35 2 14 0 42 1 63
1 45 0 47 0 172 0 55 1 107 0 115 0 54 -2 102 -1 108 3 5 3 14 1 21 -3 7 -5
30 -5 52 -1 22 4 42 3 45 -1 3 -5 10 -7 15 -3 5 3 44 5 87 4 42 -1 84 -1 92
-1 18 1 73 0 163 -2 37 -1 67 1 67 4 0 4 17 3 38 0 20 -4 51 -4 69 0 18 3 34
4 37 2 6 -7 216 -9 216 -2 0 3 23 3 50 -1 28 -4 50 -4 50 0 0 3 19 4 43 1 41
-6 42 -7 47 -51 3 -25 3 -71 0 -103 -3 -32 -2 -61 2 -63 5 -3 6 -9 3 -14 -7
-11 -10 -169 -3 -175 3 -3 2 -20 -1 -38 -4 -18 -4 -49 0 -69 3 -21 4 -38 0
-38 -7 0 -6 -169 2 -176 2 -2 1 -19 -2 -37 -4 -18 -4 -49 0 -69 3 -21 4 -38 0
-38 -7 0 -6 -169 2 -176 2 -2 1 -19 -2 -37 -4 -18 -4 -49 0 -69 3 -21 4 -38 0
-38 -7 0 -6 -169 2 -176 2 -2 1 -19 -2 -37 -4 -18 -4 -49 0 -69 3 -21 4 -38 0
-38 -7 0 -6 -169 2 -176 2 -2 1 -19 -2 -37 -4 -18 -4 -49 0 -69 3 -21 4 -38 0
-38 -7 0 -6 -169 2 -176 2 -2 1 -19 -2 -37 -4 -18 -4 -49 0 -69 3 -21 4 -38 0
-38 -7 0 -6 -169 2 -176 2 -2 1 -19 -2 -37 -4 -18 -4 -49 0 -69 3 -21 4 -38 0
-38 -7 0 -6 -169 2 -176 2 -2 1 -19 -2 -37 -4 -18 -4 -49 0 -69 3 -21 4 -38 0
-38 -3 0 -6 -19 -6 -42 0 -36 -3 -42 -25 -48 -14 -4 -34 -4 -45 0 -11 4 -33 4
-50 0 -17 -4 -39 -4 -49 0 -10 3 -42 3 -72 0 -31 -3 -57 -3 -59 0 -2 4 -25 4
-50 0 -25 -4 -47 -4 -50 -1 -2 4 -33 4 -70 1 -37 -3 -68 -3 -70 1 -3 3 -25 3
-50 -1 -24 -4 -47 -5 -49 -2 -7 6 -126 8 -126 1 0 -3 -23 -3 -50 1 -27 4 -50
3 -50 0 0 -4 -19 -4 -42 -1 -24 4 -60 4 -80 0 -21 -3 -38 -3 -38 1 0 3 -22 4
-50 0 -27 -4 -50 -4 -50 -1 0 3 -54 6 -120 6 -66 0 -120 -3 -120 -6 0 -4 -17
-3 -37 0 -21 4 -52 4 -70 0 -18 -3 -35 -4 -37 -2 -7 8 -176 9 -176 2 0 -4 -17
-3 -37 0 -21 4 -52 4 -70 0 -18 -3 -35 -4 -37 -2 -7 8 -176 9 -176 2 0 -4 -17
-3 -37 0 -21 4 -52 4 -70 0 -18 -3 -35 -4 -37 -2 -7 8 -176 9 -176 2 0 -4 -17
-3 -37 0 -21 4 -52 4 -70 0 -18 -3 -34 -4 -37 -2 -2 3 -51 4 -108 4 -57 -1
-148 -1 -203 -1 -55 1 -107 1 -115 1 -8 -1 -33 -1 -55 0 -22 0 -46 0 -52 0
-25 -2 -44 -2 -98 -1 -30 1 -59 -1 -64 -4 -5 -4 -12 -3 -15 2 -3 5 -24 6 -48
3 -24 -4 -66 -4 -95 -1 -28 3 -59 3 -69 0 -10 -4 -35 -4 -55 0 -21 4 -43 4
-49 0 -6 -4 -28 -4 -48 0 -20 3 -54 3 -75 -1 -20 -3 -39 -3 -42 1 -2 3 -23 4
-47 1 -24 -4 -66 -4 -95 -1 -28 3 -59 3 -69 0 -10 -4 -32 -4 -49 0 -17 4 -39
4 -49 0 -11 -3 -38 -4 -60 0 -23 3 -55 3 -72 0 -16 -4 -39 -4 -49 0 -11 4 -33
4 -50 0 -16 -3 -41 -4 -54 0 -14 3 -48 3 -75 0 -28 -3 -71 -3 -96 0 l-45 5 -5
45 c-3 25 -3 71 0 103 3 32 2 61 -2 63 -5 3 -6 9 -3 14 7 11 10 169 3 175 -3
3 -2 20 1 38 4 18 4 49 0 70 -3 20 -4 37 0 37 3 0 5 44 3 97 -1 54 -3 105 -3
113 1 89 0 113 -4 121 -4 5 -2 9 3 9 4 0 6 23 2 50 -4 28 -4 50 -1 50 7 0 5
119 -1 126 -3 2 -2 25 2 49 4 25 4 48 0 50 -4 3 -5 19 -1 37 4 18 4 52 1 76
-4 23 -4 42 0 42 3 0 4 23 0 50 -4 28 -4 50 -1 50 7 0 5 119 -1 126 -3 2 -2
25 2 49 4 25 4 47 1 50 -4 2 -4 31 -1 65 3 33 3 65 0 69 -3 5 -3 46 0 91 3 45
2 84 -1 86 -4 2 -3 18 0 36 4 18 4 50 0 71 -3 20 -4 37 0 37 7 0 6 169 -2 176
-2 2 -1 19 2 37 4 18 4 49 0 70 -3 20 -4 37 0 37 3 0 5 24 4 52 -3 116 -3 146
-2 206 1 34 0 65 -3 67 -3 3 -2 22 1 43 6 36 8 37 49 37 23 0 42 3 42 6 0 4
17 3 38 0 20 -4 51 -4 69 0z"/>
</g>
</svg>
